<svg width="16" height="10" viewBox="0 0 16 10" fill="none" xmlns="http://www.w3.org/2000/svg">
<path d="M16 1V6C16 6.26522 15.8947 6.51957 15.7071 6.70711C15.5196 6.89464 15.2652 7 15 7H3.41413L4.70703 8.293C4.88918 8.4816 4.98998 8.7342 4.9877 8.9964C4.98542 9.2586 4.88025 9.50941 4.69484 9.69482C4.50944 9.88023 4.25862 9.9854 3.99643 9.98767C3.73423 9.98995 3.48163 9.88916 3.29303 9.707L0.293826 6.7079C0.106733 6.51981 0.00170898 6.2653 0.00170898 6C0.00170898 5.7347 0.106733 5.48019 0.293826 5.2921L3.29303 2.293C3.48163 2.11084 3.73423 2.01005 3.99643 2.01233C4.25862 2.0146 4.50944 2.11977 4.69484 2.30518C4.88025 2.49059 4.98542 2.7414 4.9877 3.0036C4.98998 3.2658 4.88918 3.5184 4.70703 3.707L3.41413 5H14V1C14 0.734784 14.1054 0.48043 14.2929 0.292893C14.4805 0.105357 14.7348 0 15 0C15.2652 0 15.5196 0.105357 15.7071 0.292893C15.8947 0.48043 16 0.734784 16 1Z" fill="#fff"/>
</svg>
