<svg width="21" height="21" viewBox="0 0 21 21" fill="none" xmlns="http://www.w3.org/2000/svg">
<path d="M21.0001 10.1779C21.006 7.88855 20.2281 5.6661 18.7958 3.88007C17.3635 2.09403 15.3631 0.85199 13.1271 0.360426C10.8911 -0.131139 8.55417 0.157383 6.50486 1.17803C4.45555 2.19867 2.81729 3.88995 1.86241 5.97072C0.907531 8.05148 0.69356 10.3964 1.25607 12.6156C1.81857 14.8348 3.12367 16.7947 4.95441 18.1694C6.78514 19.5441 9.03123 20.2508 11.3193 20.1721C13.6073 20.0933 15.7995 19.2339 17.5314 17.7365L17.5357 17.7323L17.5372 17.7311L17.5386 17.7296C18.6257 16.7947 19.4978 15.6358 20.0952 14.3324C20.6927 13.0289 21.0014 11.6118 21.0001 10.1779ZM3.00011 10.1779C2.99673 8.90113 3.29902 7.64205 3.88171 6.50594C4.4644 5.36983 5.31057 4.38969 6.34948 3.64744C7.3884 2.90519 8.58988 2.4224 9.85352 2.23941C11.1172 2.05641 12.4063 2.17854 13.613 2.59558C14.8198 3.01261 15.9093 3.71245 16.7903 4.63659C17.6714 5.56073 18.3184 6.68233 18.6774 7.90765C19.0364 9.13298 19.0968 10.4264 18.8538 11.6799C18.6107 12.9334 18.0711 14.1104 17.2801 15.1127C16.8741 14.2686 16.3012 13.5155 15.5959 12.899C14.8907 12.2824 14.0678 11.8153 13.1769 11.5257C13.9025 11.056 14.4564 10.3639 14.7559 9.55309C15.0554 8.74226 15.0843 7.85626 14.8383 7.02765C14.5922 6.19903 14.0845 5.47235 13.3911 4.95631C12.6977 4.44028 11.8558 4.16265 10.9914 4.16494C10.1271 4.16723 9.2867 4.44934 8.59602 4.96904C7.90535 5.48875 7.40151 6.21812 7.15989 7.04803C6.91828 7.87794 6.95187 8.76377 7.25565 9.573C7.55942 10.3822 8.11705 11.0713 8.84511 11.5372C7.95437 11.8289 7.13067 12.2951 6.42211 12.9086C5.71356 13.5221 5.13434 14.2707 4.71831 15.1105C3.60637 13.7068 3.00094 11.9687 3.00011 10.1779Z" fill="#7C7C7C"/>
</svg>
