<svg width="20" height="21" viewBox="0 0 20 21" fill="none" xmlns="http://www.w3.org/2000/svg">
<path d="M10 0.00170898C8.02219 0.00170898 6.08879 0.588199 4.4443 1.68701C2.79981 2.78583 1.51809 4.34761 0.761209 6.17487C0.00433284 8.00214 -0.193701 10.0128 0.192152 11.9526C0.578004 13.8924 1.53041 15.6743 2.92894 17.0728C4.32746 18.4713 6.10929 19.4237 8.0491 19.8096C9.98891 20.1954 11.9996 19.9974 13.8268 19.2405C15.6541 18.4836 17.2159 17.2019 18.3147 15.5574C19.4135 13.9129 20 11.9795 20 10.0017C19.9956 7.35088 18.9407 4.80988 17.0663 2.93546C15.1918 1.06104 12.6508 0.00607206 10 0.00170898ZM9.71 12.7117C9.52043 12.8976 9.26551 13.0017 9 13.0017C8.7345 13.0017 8.47958 12.8976 8.29 12.7117L6 10.4117L7.41 9.00171L9 10.5917L12.59 7.00171L14 8.41171L9.71 12.7117Z" fill="#fff"/>
</svg>
