<svg width="20" height="21" viewBox="0 0 20 21" fill="none" xmlns="http://www.w3.org/2000/svg">
<path d="M10 0.00170898C8.02219 0.00170898 6.08879 0.588199 4.4443 1.68701C2.79981 2.78583 1.51809 4.34761 0.761209 6.17487C0.00433284 8.00214 -0.193701 10.0128 0.192152 11.9526C0.578004 13.8924 1.53041 15.6743 2.92894 17.0728C4.32746 18.4713 6.10929 19.4237 8.0491 19.8096C9.98891 20.1954 11.9996 19.9974 13.8268 19.2405C15.6541 18.4836 17.2159 17.2019 18.3147 15.5574C19.4135 13.9129 20 11.9795 20 10.0017C19.997 7.35047 18.9424 4.80868 17.0677 2.93397C15.193 1.05926 12.6512 0.00472624 10 0.00170898ZM13.707 12.2947L12.293 13.7087L10 11.4158L7.707 13.7087L6.293 12.2947L8.58591 10.0017L6.293 7.70871L7.707 6.29471L10 8.58761L12.293 6.29471L13.707 7.70871L11.4141 10.0017L13.707 12.2947Z" fill="red"/>
</svg>
